# xmcd CD database file
#
# Track frame offsets:
#	150
#	18563
#	35889
#	56071
#	75664
#	95681
#	115203
#	137322
#	157540
#	179686
#	199202
#	216806
#	234597
#	256201
#
# Disc length: 3694 seconds
#
# Revision: 0
# Processed by: cddbd v1.4PL0 Copyright (c) Steve Scherf et al.
# Submitted via: Feurio! 1.63 - http://www.feurio.com
#
DISCID=be0e6c0e
DTITLE=Beverlei Brown - Next To You
DYEAR=1900
DGENRE=R&B
TTITLE0=Somebody Knows How You Feel
TTITLE1=Love You Yes
TTITLE2=Could Be You
TTITLE3=Part Time Lover
TTITLE4=Keep On Doing (What I'm Doing)
TTITLE5=Dedicate
TTITLE6=In The Summertime
TTITLE7=Best Friend
TTITLE8=Gonna Get Over You
TTITLE9=Tell Me
TTITLE10=Unhappily Ever After
TTITLE11=I've Had Enough
TTITLE12=Somebody Knows How You Feel
TTITLE13=Gonna Get Over You
EXTD=
EXTT0=
EXTT1=
EXTT2=With Dennis Taylor
EXTT3=
EXTT4=
EXTT5=
EXTT6=
EXTT7=
EXTT8=
EXTT9=
EXTT10=
EXTT11=
EXTT12=VRS Mix
EXTT13=Full Flava Mix
PLAYORDER=
